<?xml version="1.0" encoding="UTF-8"?>
<svg width="100%" height="100%" viewBox="0 0 18 22" version="1.1" xmlns="http://www.w3.org/2000/svg" xmlns:xlink="http://www.w3.org/1999/xlink">
    <title>approved</title>
    <g id="My-Absences" stroke="none" stroke-width="1" fill="none" fill-rule="evenodd">
        <g id="Update-absence-start" transform="translate(-894.000000, -529.000000)" fill="#616161" fill-rule="nonzero">
            <g id="Group-4" transform="translate(110.000000, 504.000000)">
                <g id="approved" transform="translate(784.000000, 25.000000)">
                    <path d="M16.0714286,2.75 L14.1428571,2.75 L14.1428571,0.515625 C14.1428571,0.230871094 13.9269777,0 13.6607143,0 L13.3392857,0 C13.0730223,0 12.8571429,0.230871094 12.8571429,0.515625 L12.8571429,2.75 L5.14285714,2.75 L5.14285714,0.515625 C5.14285714,0.230871094 4.92697768,0 4.66071429,0 L4.33928571,0 C4.07302232,0 3.85714286,0.230871094 3.85714286,0.515625 L3.85714286,2.75 L1.92857143,2.75 C0.8634375,2.75 0,3.67339844 0,4.8125 L0,19.9375 C0,21.0766016 0.8634375,22 1.92857143,22 L16.0714286,22 C17.1365625,22 18,21.0766016 18,19.9375 L18,4.8125 C18,3.67339844 17.1365625,2.75 16.0714286,2.75 Z M1.92857143,4.125 L16.0714286,4.125 C16.4258839,4.125 16.7142857,4.43342969 16.7142857,4.8125 L16.7142857,6.875 L1.28571429,6.875 L1.28571429,4.8125 C1.28571429,4.43342969 1.57411607,4.125 1.92857143,4.125 Z M16.0714286,20.625 L1.92857143,20.625 C1.57411607,20.625 1.28571429,20.3165703 1.28571429,19.9375 L1.28571429,8.25 L16.7142857,8.25 L16.7142857,19.9375 C16.7142857,20.3165703 16.4258839,20.625 16.0714286,20.625 Z M13.4008795,12.2488008 L7.98516964,17.9941523 C7.79633036,18.1945156 7.49145536,18.1936133 7.30362054,17.9921758 L4.59727232,15.0895508 C4.40911607,14.8877266 4.40955804,14.5609922 4.59823661,14.3597266 L4.93995536,13.9953516 C5.12867411,13.7941289 5.43419196,13.7946016 5.62234821,13.9963828 L7.64903571,16.170043 L12.3813482,11.1497031 C12.5705491,10.9489961 12.876067,10.9502852 13.0637813,11.152625 L13.4036116,11.5190195 C13.5913259,11.7213594 13.5900804,12.0480937 13.4008795,12.2488008 L13.4008795,12.2488008 Z" id="Shape"></path>
                </g>
            </g>
        </g>
    </g>
</svg>
