<?xml version="1.0" encoding="UTF-8"?>
<svg width="22px" height="22px" viewBox="0 0 22 22" version="1.1" xmlns="http://www.w3.org/2000/svg" xmlns:xlink="http://www.w3.org/1999/xlink">
    <title>taken</title>
    <g id="My-Absences" stroke="none" stroke-width="1" fill="none" fill-rule="evenodd">
        <g id="Update-absence-start" transform="translate(-892.000000, -679.000000)" fill="#616161" fill-rule="nonzero">
            <g id="taken" transform="translate(892.000000, 679.000000)">
                <path d="M11,0 C4.92485081,0 0,4.92485081 0,11 C0,17.0751492 4.92485081,22 11,22 C17.0751492,22 22,17.0751492 22,11 C22,4.92485081 17.0751492,0 11,0 Z M11,20.5806452 C5.73667742,20.5806452 1.41935484,16.3201411 1.41935484,11 C1.41935484,5.73672177 5.67985887,1.41935484 11,1.41935484 C16.2633226,1.41935484 20.5806452,5.67985887 20.5806452,11 C20.5806452,16.2632782 16.3201411,20.5806452 11,20.5806452 Z M17.2819758,8.38479435 L9.27681452,16.3257298 C9.068125,16.5327339 8.73111694,16.5314032 8.5241129,16.3227137 L4.71500806,12.4828266 C4.50800403,12.2741371 4.50933468,11.937129 4.71802419,11.730125 L5.09592742,11.3552823 C5.30461694,11.1482782 5.641625,11.1496089 5.84862903,11.3582984 L8.90804839,14.4424234 L16.1574476,7.25117339 C16.3661371,7.04416935 16.7031452,7.0455 16.9101492,7.25418952 L17.2849919,7.63209274 C17.4920403,7.84078226 17.4906653,8.17779032 17.2819758,8.38479435 L17.2819758,8.38479435 Z" id="Shape"></path>
            </g>
        </g>
    </g>
</svg>