<?xml version="1.0" encoding="UTF-8"?>
<svg width="16px" height="22px" viewBox="0 0 16 22" version="1.1" xmlns="http://www.w3.org/2000/svg" xmlns:xlink="http://www.w3.org/1999/xlink">
    <title>pending</title>
    <g id="My-Absences" stroke="none" stroke-width="1" fill="none" fill-rule="evenodd">
        <g id="Update-absence-start" transform="translate(-894.000000, -454.000000)" fill="#616161" fill-rule="nonzero">
            <g id="pending" transform="translate(894.000000, 454.000000)">
                <path d="M15.3333333,1.375 L15.5,1.375 C15.776125,1.375 16,1.14412891 16,0.859375 L16,0.515625 C16,0.230871094 15.776125,0 15.5,0 L0.5,0 C0.223875,0 0,0.230871094 0,0.515625 L0,0.859375 C0,1.14412891 0.223875,1.375 0.5,1.375 L0.666666667,1.375 C0.666666667,5.32043359 2.5045,9.69619922 6.06858333,11 C2.493,12.3080117 0.666666667,16.6923711 0.666666667,20.625 L0.5,20.625 C0.223875,20.625 0,20.8558711 0,21.140625 L0,21.484375 C0,21.7691289 0.223875,22 0.5,22 L15.5,22 C15.776125,22 16,21.7691289 16,21.484375 L16,21.140625 C16,20.8558711 15.776125,20.625 15.5,20.625 L15.3333333,20.625 C15.3333333,16.6795664 13.4955,12.3038008 9.93141667,11 C13.507,9.69198828 15.3333333,5.30762891 15.3333333,1.375 Z M2,1.375 L14,1.375 C14,6.12119922 11.3137083,9.96875 8,9.96875 C4.68629167,9.96875 2,6.12119922 2,1.375 Z M14,20.625 L2,20.625 C2,15.8788008 4.68629167,12.03125 8,12.03125 C11.3137083,12.03125 14,15.8788008 14,20.625 Z M4.099125,17.875 L11.9009167,17.875 C12.127444,17.8749834 12.3257305,18.031897 12.3843333,18.2575508 C12.4154744,18.3776371 12.4440784,18.4984079 12.470125,18.6197773 C12.5394583,18.9429883 12.3034583,19.25 11.9824583,19.25 L4.01758333,19.25 C3.69658333,19.25 3.46058333,18.9429883 3.52991667,18.6197773 C3.55575,18.499293 3.584375,18.3784648 3.61570833,18.2575508 C3.6743112,18.031897 3.87259767,17.8749834 4.099125,17.875 L4.099125,17.875 Z M4.76420833,15.687375 C4.85351598,15.5584659 4.94767105,15.4332025 5.04645833,15.3118711 C5.14233333,15.1942227 5.28275,15.125043 5.43179167,15.125043 L10.5682917,15.125043 C10.7172917,15.125043 10.85775,15.1942227 10.953625,15.3118711 C11.0523895,15.4332214 11.1465439,15.5584839 11.235875,15.687375 C11.4715833,16.0272578 11.2322083,16.5 10.827,16.5 L5.17304167,16.5 C4.767875,16.5 4.5285,16.0272148 4.76420833,15.687375 Z" id="Shape"></path>
            </g>
        </g>
    </g>
</svg>